<svg id="Capa_1" enable-background="new 0 0 512.213 512.213" height="2em" viewBox="0 0 512.213 512.213" width="2em" xmlns="http://www.w3.org/2000/svg"><g><path d="m1.741 383.319c-.869 8.887-1.39 17.836-1.518 26.832l-.223 15.835h438.717v-42.667z"/><path d="m442.867 353.319 69.133-43.316-28.814-150.684h29.027v-30h-35.343l-9.072-43.092-12.598.434c-4.436.153-164.61 8.424-166.4 8.596-61.346 5.888-119.12 29.404-166.921 67.336v-18.273h-30v45.361c-2.497 2.555-4.968 5.14-7.387 7.787-40.261 44.049-67.179 98.011-78.392 155.851zm-310.321-51h-30v-30h30zm64 0h-30v-30h30zm65-104.166c0-17.949 14.551-32.5 32.5-32.5h111.5l14.667 65h-126.167c-17.949 0-32.5-14.551-32.5-32.5z"/></g></svg>